<?xml version="1.0" encoding="UTF-8" standalone="no"?>
<!-- Created with Inkscape (http://www.inkscape.org/) -->

<svg
   xmlns:dc="http://purl.org/dc/elements/1.1/"
   xmlns:cc="http://creativecommons.org/ns#"
   xmlns:rdf="http://www.w3.org/1999/02/22-rdf-syntax-ns#"
   xmlns:svg="http://www.w3.org/2000/svg"
   xmlns="http://www.w3.org/2000/svg"
   xmlns:sodipodi="http://sodipodi.sourceforge.net/DTD/sodipodi-0.dtd"
   xmlns:inkscape="http://www.inkscape.org/namespaces/inkscape"
   width="150mm"
   height="112mm"
   viewBox="0 0 531.49606 396.8504"
   id="svg2"
   version="1.1"
   inkscape:version="0.91 r13725"
   sodipodi:docname="Logo360.svg">
  <defs
     id="defs4" />
  <sodipodi:namedview
     id="base"
     pagecolor="#ffffff"
     bordercolor="#666666"
     borderopacity="1.0"
     inkscape:pageopacity="0.0"
     inkscape:pageshadow="2"
     inkscape:zoom="0.48019425"
     inkscape:cx="525.35847"
     inkscape:cy="516.9559"
     inkscape:document-units="px"
     inkscape:current-layer="layer1"
     showgrid="false"
     inkscape:window-width="1366"
     inkscape:window-height="706"
     inkscape:window-x="-8"
     inkscape:window-y="-8"
     inkscape:window-maximized="1" />
  <metadata
     id="metadata7">
    <rdf:RDF>
      <cc:Work
         rdf:about="">
        <dc:format>image/svg+xml</dc:format>
        <dc:type
           rdf:resource="http://purl.org/dc/dcmitype/StillImage" />
        <dc:title />
      </cc:Work>
    </rdf:RDF>
  </metadata>
  <g
     inkscape:label="Calque 1"
     inkscape:groupmode="layer"
     id="layer1"
     transform="translate(0,-655.5118)">
    <g
       id="logo360" />
    <g
       id="logo360TV">
      <g
         id="chiffre3"
         transform="translate(16.162441,-16.16244)"
         style="fill:#f2a200;fill-opacity:1">
        <path
           sodipodi:nodetypes="ssscssssscccssssscsssscssssssssscccssss"
           inkscape:connector-curvature="0"
           id="path4245"
           d="m 45.436766,1020.2973 c -2.737209,-0.687 -8.155596,-2.7811 -12.04085,-4.6536 -9.308839,-4.4863 -18.162753,-13.2213 -22.372213,-22.07159 -1.5686282,-3.29804 -2.6628256,-6.18565 -2.4315506,-6.41693 0.3192663,-0.31927 18.6558856,-5.39026 19.5867446,-5.41671 0.10245,-0.003 0.788093,1.15848 1.523643,2.58088 4.045494,7.82312 13.333533,14.09089 23.452234,15.82605 14.018958,2.404 29.128603,-4.35869 34.644192,-15.50582 2.496834,-5.04615 2.277756,-13.7598 -0.480765,-19.12198 -3.929486,-7.63837 -13.681598,-13.1875 -25.194558,-14.33618 l -5.897294,-0.58838 0,-10.37656 0,-10.37654 4.897925,-0.61181 c 6.408519,-0.80051 11.215071,-3.20434 15.32702,-7.66527 3.877064,-4.20612 5.483808,-9.11487 4.821116,-14.72898 -0.564085,-4.77877 -2.074225,-7.81276 -5.679246,-11.41006 -12.159579,-12.13356 -34.459778,-6.50809 -38.851262,9.80066 l -0.924459,3.43317 -9.958896,0 c -11.663558,0 -11.602874,0.0497 -9.639355,-7.90697 2.016273,-8.17049 5.438661,-14.39602 10.943158,-19.90623 20.899434,-20.92119 57.323231,-16.13414 70.819152,9.3075 l 2.726178,5.13923 -2.013676,4.81482 c -5.963117,14.25818 -8.345287,26.18083 -8.345287,41.7678 0,17.40257 3.229611,31.39396 10.882943,47.1473 2.72291,5.60474 3.59907,8.27403 3.21635,9.7989 -0.71739,2.8583 -9.903531,11.7783 -15.602078,15.1501 -8.958601,5.3007 -15.588007,7.0594 -27.637154,7.3321 -7.573394,0.1714 -12.280568,-0.1285 -15.772012,-1.0049 z M 11.521725,959.93047 C 10.256898,959.0056 10.12174,957.34088 10.325004,945.1908 l 0.229142,-13.69705 14.532065,0 14.532064,0 0.228631,13.59122 c 0.156754,9.31801 -0.07104,13.95232 -0.72448,14.73967 -1.301679,1.56842 -25.47373,1.66111 -27.600701,0.10583 z"
           style="fill:#f2a200;fill-opacity:1" />
      </g>
      <g
         id="chiffre6"
         transform="translate(16.162441,-19.00224)"
         style="fill:#ff6a00;fill-opacity:1">
        <path
           sodipodi:nodetypes="ssssscssscsssssssssssssssssssssss"
           inkscape:connector-curvature="0"
           id="path4245-5"
           d="m 189.09093,1044.2974 c -26.86071,-4.8355 -52.31201,-20.6696 -68.46039,-42.5915 -6.26197,-8.50087 -13.37364,-22.82142 -16.14893,-32.51868 -6.922617,-24.18862 -3.77448,-53.09643 8.03583,-73.78892 2.41229,-4.22649 48.4492,-73.10358 90.21136,-134.96769 l 16.25666,-24.0817 25.27338,-0.22001 c 14.15003,-0.12318 25.60139,0.10799 26.01863,0.52524 0.44007,0.44006 -12.90883,21.22209 -32.59707,50.74829 -19.08693,28.62443 -33.15128,50.50086 -32.89553,51.16738 0.33876,0.88278 2.31064,1.16515 8.15411,1.16767 27.29452,0.0118 55.30336,12.11304 75.80038,32.74953 15.11074,15.21355 24.46186,32.51368 28.23568,52.23766 1.632,8.52973 1.62577,27.40737 -0.0119,36.04051 -5.67568,29.91976 -26.64715,57.43342 -55.13056,72.32892 -9.64575,5.0443 -22.69498,9.5409 -32.78344,11.2966 -9.27788,1.6147 -30.74843,1.5646 -39.95819,-0.093 z m 39.85937,-45.12179 c 26.00009,-8.30434 43.114,-28.66684 44.92524,-53.45297 1.63697,-22.4014 -14.20415,-46.33358 -37.48363,-56.62886 -27.27592,-12.0627 -63.29763,-3.03153 -79.72402,19.98799 -8.29536,11.62491 -11.63208,22.68456 -10.987,36.41674 0.66298,14.11323 5.37576,24.78345 15.87726,35.94768 9.04669,9.61764 20.39752,16.05225 33.3456,18.90311 8.63341,1.9009 26.33048,1.2908 34.04655,-1.17369 z m -30.61786,-33.64687 c -1.17552,-1.17553 -1.35267,-3.98757 -1.35267,-21.47217 0,-21.10306 0.16953,-22.11246 3.7139,-22.11246 2.03795,0 31.53272,16.72086 34.365,19.48183 3.48047,3.39284 2.14668,4.64323 -15.91333,14.91824 -9.22237,5.24695 -17.37372,9.76431 -18.11408,10.03858 -0.74038,0.27426 -1.95485,-0.11005 -2.69882,-0.85402 z"
           style="fill:#ff6a00;fill-opacity:1" />
      </g>
      <g
         id="chiffre0"
         transform="translate(16.162441,-15.97812)"
         style="fill:#991f3d;fill-opacity:1">
        <path
           sodipodi:nodetypes="sssssssssscsscczasscsssssssssscccsss"
           inkscape:connector-curvature="0"
           id="path4245-5-4"
           d="m 352.26524,1023.5184 c -6.71902,-0.4949 -14.40446,-1.9625 -21.59049,-4.1225 -7.77446,-2.3369 -19.92041,-7.8318 -21.48888,-9.7217 -0.81307,-0.9798 -0.12734,-2.5455 3.65872,-8.3538 2.56263,-3.9314 6.14601,-10.32052 7.96306,-14.19802 1.81706,-3.87751 3.45104,-7.05001 3.63106,-7.05001 0.18001,0 2.68438,1.47127 5.56528,3.26951 11.33589,7.07581 26.33028,9.85505 38.86932,7.20453 21.63426,-4.57309 37.39034,-22.94901 37.35831,-43.57007 -0.0191,-12.29281 -4.24691,-21.83313 -14.07907,-31.77009 -16.00641,-16.17705 -40.12934,-20.03537 -60.6474,-9.70019 -3.88214,1.95547 -7.32913,3.55797 -7.65999,3.5611 -0.33086,0.003 -2.13593,-3.1706 -4.01128,-7.05273 -1.87535,-3.88215 -5.43488,-10.07373 -7.91008,-13.75909 -7.63547,-9.7711 -2.74197,-10.13723 8.17653,-13.97582 13.1888,-4.46539 30.32764,-7.31675 41.23069,-6.70736 12.02323,0.67199 26.72076,3.16205 39.03967,9.74814 12.3189,6.58609 24.66034,16.91518 32.26001,29.29359 7.23014,11.77654 10.94077,27.41822 10.96452,39.98044 0.0652,34.46609 -25.32764,65.05307 -61.49112,74.06927 -6.62037,1.6506 -20.82316,3.5454 -24.44123,3.2607 -0.91345,-0.072 -3.34237,-0.2545 -5.39763,-0.4059 z m -5.73218,-65.35457 c -0.65345,-0.78736 -0.88124,-5.42166 -0.72448,-14.73966 0.22678,-13.4815 0.24409,-13.59342 2.14275,-13.86256 3.92261,-0.55608 4.31391,0.75288 4.31391,14.43056 0,10.44758 -0.2323,12.94256 -1.30492,14.01518 -1.61014,1.61014 -3.17493,1.66545 -4.42726,0.15648 z m 18.39,0.18765 c -0.73484,-0.73485 -1.03217,-4.78235 -1.03217,-14.05088 0,-14.00857 0.37713,-15.29708 4.31392,-14.73899 l 1.91411,0.27134 0,14.53206 0,14.53205 -2.08184,0.2433 c -1.14502,0.13381 -2.54632,-0.22119 -3.11402,-0.78888 z"
           style="fill:#991f3d;fill-opacity:1" />
      </g>
      <g
         id="logoTV"
         style="fill:#a5acb0;fill-opacity:1">
        <g
           id="lettreT"
           transform="translate(16.162441,-18.008633)"
           style="fill:#a5acb0;fill-opacity:1">
          <path
             sodipodi:nodetypes="sscsssscssscscssscssssssss"
             inkscape:connector-curvature="0"
             id="path4245-5-0"
             d="m 351.99041,844.67813 c -10.35877,-1.73913 -18.33534,-6.67628 -22.79191,-14.1072 -5.32289,-8.87545 -5.93591,-14.18026 -5.97022,-51.66384 l -0.0271,-29.68693 -5.85057,0 c -5.1045,0 -6.11049,-0.25991 -7.88883,-2.03825 -2.54371,-2.54371 -2.60426,-5.44455 -0.16156,-7.73935 1.47079,-1.38173 3.1322,-1.81717 7.68123,-2.01317 l 5.80453,-0.25008 0.4152,-21.29761 c 0.379,-19.44085 0.55311,-21.44984 1.99711,-23.0437 1.90047,-2.09772 6.42715,-2.33763 8.32363,-0.44117 0.7177,0.71771 1.38244,1.37165 1.47719,1.4532 0.0948,0.0816 0.37501,9.86401 0.62281,21.73878 l 0.45051,21.5905 10.65724,0.41521 c 11.6564,0.45412 13.00927,1.06173 13.00927,5.84283 0,4.28913 -2.42989,5.32407 -13.57715,5.78281 l -10.08936,0.41521 0,33.21614 c 0,37.03955 0.0282,37.25959 5.52654,43.22465 4.05002,4.39374 9.62628,6.82932 17.2601,7.53882 4.9701,0.46191 6.19868,0.88723 7.55927,2.61695 2.1651,2.75248 2.04785,4.8153 -0.41364,7.27678 -2.21427,2.21429 -5.93925,2.52511 -14.01422,1.16942 z"
             style="fill:#a5acb0;fill-opacity:1" />
        </g>
        <g
           id="lettreV"
           transform="translate(16.162441,-15.978125)"
           style="fill:#a5acb0;fill-opacity:1">
          <path
             sodipodi:nodetypes="sssssssssss"
             inkscape:connector-curvature="0"
             id="path4245-5-01"
             d="m 431.87272,843.67857 c -2.4887,-2.82428 -46.34219,-97.85322 -46.36848,-100.47883 -0.0433,-4.31399 4.96424,-6.99442 9.01582,-4.82609 0.82754,0.4429 9.81814,18.89943 20.8322,42.7658 10.65699,23.09265 19.8344,41.98663 20.39423,41.98663 0.55983,0 9.50622,-18.40381 19.8809,-40.89737 10.37464,-22.49356 19.64044,-41.73816 20.59065,-42.76579 2.30819,-2.49625 5.94051,-2.42396 8.53432,0.16985 1.12104,1.12106 2.03827,2.47033 2.03827,2.99842 0,2.03131 -45.89849,100.08648 -47.49347,101.46258 -2.31418,1.99662 -5.45392,1.82103 -7.42444,-0.4152 z"
             style="fill:#a5acb0;fill-opacity:1" />
        </g>
      </g>
    </g>
  </g>
</svg>
