<?xml version="1.0" encoding="UTF-8" standalone="no"?>
<!-- Created with Inkscape (http://www.inkscape.org/) -->

<svg
   xmlns:dc="http://purl.org/dc/elements/1.1/"
   xmlns:cc="http://creativecommons.org/ns#"
   xmlns:rdf="http://www.w3.org/1999/02/22-rdf-syntax-ns#"
   xmlns:svg="http://www.w3.org/2000/svg"
   xmlns="http://www.w3.org/2000/svg"
   xmlns:sodipodi="http://sodipodi.sourceforge.net/DTD/sodipodi-0.dtd"
   xmlns:inkscape="http://www.inkscape.org/namespaces/inkscape"
   width="750"
   height="400"
   viewBox="0 0 749.99997 400"
   id="svg4862"
   version="1.1"
   inkscape:version="0.91 r13725"
   sodipodi:docname="LogoCGI - transform.svg">
  <defs
     id="defs4864" />
  <sodipodi:namedview
     id="base"
     pagecolor="#ffffff"
     bordercolor="#666666"
     borderopacity="1.0"
     inkscape:pageopacity="0.0"
     inkscape:pageshadow="2"
     inkscape:zoom="0.49497475"
     inkscape:cx="156.59399"
     inkscape:cy="50.06881"
     inkscape:document-units="px"
     inkscape:current-layer="logoCGI"
     showgrid="false"
     units="px"
     inkscape:window-width="1680"
     inkscape:window-height="1028"
     inkscape:window-x="1358"
     inkscape:window-y="-8"
     inkscape:window-maximized="1" />
  <metadata
     id="metadata4867">
    <rdf:RDF>
      <cc:Work
         rdf:about="">
        <dc:format>image/svg+xml</dc:format>
        <dc:type
           rdf:resource="http://purl.org/dc/dcmitype/StillImage" />
        <dc:title />
      </cc:Work>
    </rdf:RDF>
  </metadata>
  <g
     inkscape:label="Calque 1"
     inkscape:groupmode="layer"
     id="layer1"
     transform="translate(0,-652.36212)">
    <g
       id="logoCGI"
       style="fill:#e21d3a;fill-opacity:1"
       transform="translate(16.162441,2.0203051)">
      <path
         style="fill:#e21d3a;fill-opacity:1"
         d="m 573.27304,964.25707 c -2.55546,-2.55549 -2.87255,-16.05075 -2.84754,-121.23179 0.0144,-65.09602 -0.0111,-121.61231 1.51354,-121.61231 l 26.96319,0 25.47771,0 0.47601,120.37046 c 0.44272,111.91768 0.24775,120.94212 -2.63714,123.06173 -4.92269,3.61684 -45.22507,3.13256 -48.94577,-0.58809 z"
         id="lettreI"
         inkscape:connector-curvature="0"
         sodipodi:nodetypes="scscssss" />
      <path
         style="fill:#e21d3a;fill-opacity:1"
         d="m 412.64271,967.31411 c -48.25876,-10.52577 -88.75442,-49.11346 -100.53266,-95.79617 -4.31959,-17.12071 -3.87437,-43.2045 1.04353,-61.13041 14.63056,-53.32914 62.86113,-90.76193 122.49619,-95.07207 25.24747,-1.82478 65.76968,4.70316 86.86278,13.99312 l 7.75011,3.41334 0,26.60153 c 0,21.08081 -0.52827,26.80417 -2.54528,27.57816 -1.39996,0.53731 -7.53461,-1.5419 -13.63267,-4.62011 -26.46121,-13.35765 -58.19204,-19.92149 -79.83997,-16.51575 -53.62749,8.4368 -83.8645,63.22248 -61.29885,111.06585 5.92182,12.55527 22.14074,29.13054 34.7636,35.52699 19.26758,9.76349 48.78074,12.78075 64.93584,6.63858 l 4.84662,-1.84258 -0.51226,-22.3624 -0.51219,-24.27571 -19.14744,0.0907 -19.14744,-6.9e-4 0,-23.70633 0,-23.70639 44.67731,-0.48927 c 48.81747,-0.53476 48.99767,-0.324 48.99767,-0.324 -0.0144,6.82286 0.23862,20.87304 0.23862,65.69634 0,69.37358 1.33209,64.637 -20.17758,71.74699 -29.39795,9.71728 -73.7218,13.06201 -99.26593,7.49047 z"
         id="lettreG"
         inkscape:connector-curvature="0"
         sodipodi:nodetypes="ssssscssssssscccccccscssss" />
      <path
         style="fill:#e21d3a;fill-opacity:1"
         d="m 174.9224,966.45581 c -38.65022,-10.12183 -70.0542,-35.4199 -86.989048,-70.07555 -17.75086,-36.32539 -17.68994,-73.65983 0.17925,-109.91102 15.654678,-31.75858 48.161698,-57.84914 83.865538,-67.31169 26.7339,-7.08515 64.46493,-4.90298 95.7109,5.5355 23.44622,7.83279 22.09801,5.55586 22.09801,37.31964 0,15.5025 -0.74468,27.3553 -1.68623,27.3553 -0.94153,0 -7.70835,-3.22751 -15.06862,-7.17237 -26.39527,-14.14682 -52.28239,-19.96544 -73.77782,-16.58307 -26.2927,4.13733 -47.77408,19.30683 -59.09339,41.73022 -30.62476,60.66726 22.93861,125.90664 91.54491,111.50045 12.436,-2.6114 33.98564,-12.49644 45.21874,-20.74226 4.83201,-3.54711 9.70285,-6.44929 10.82398,-6.44929 1.4092,0 2.03843,8.4163 2.03843,27.26492 0,27.1414 -0.0212,27.28164 -4.71833,30.97627 -6.64505,5.22696 -30.16046,13.96797 -46.80307,17.39726 -19.2135,3.95895 -46.4082,3.60084 -63.34325,-0.83431 z"
         id="lettreC"
         inkscape:connector-curvature="0"
         sodipodi:nodetypes="sssssszssssssssss" />
      <path
         style="fill:#e21d3a;fill-opacity:1"
         d="m 222.1489,947.8131 c -21.8083,-5.7112 -39.52794,-19.9856 -49.0834,-39.53998 -10.01588,-20.49653 -9.98151,-41.56241 0.10115,-62.01707 8.83312,-17.91972 27.17514,-32.64126 47.32096,-37.98049 15.08455,-3.99778 36.3742,-2.7665 54.00468,3.1234 13.22948,4.41963 12.46876,3.13488 12.46876,21.05753 0,8.74725 -0.42019,15.43517 -0.95146,15.43517 -0.53125,0 -4.34942,-1.82112 -8.50243,-4.047 -14.89348,-7.98231 -29.50024,-11.26546 -41.62899,-9.35696 -14.8356,2.33448 -26.95642,10.89384 -33.34332,23.54619 -17.27997,34.23138 12.94306,71.04257 51.65403,62.9139 7.01698,-1.47348 19.17632,-7.05108 25.51458,-11.70377 2.72645,-2.00145 5.47481,-3.639 6.10741,-3.639 0.79513,0 1.15018,4.74888 1.15018,15.38419 0,15.31448 -0.012,15.39358 -2.66231,17.47831 -3.74946,2.94927 -17.01798,7.88136 -26.40854,9.81634 -10.84118,2.23385 -26.18573,2.0318 -35.7413,-0.47076 z"
         id="lettreC-7"
         inkscape:connector-curvature="0"
         sodipodi:nodetypes="sssssszssssssssss" />
    </g>
  </g>
</svg>
