<?xml version="1.0" encoding="UTF-8" standalone="no"?>
<svg
   xmlns:dc="http://purl.org/dc/elements/1.1/"
   xmlns:cc="http://creativecommons.org/ns#"
   xmlns:rdf="http://www.w3.org/1999/02/22-rdf-syntax-ns#"
   xmlns:svg="http://www.w3.org/2000/svg"
   xmlns="http://www.w3.org/2000/svg"
   xmlns:sodipodi="http://sodipodi.sourceforge.net/DTD/sodipodi-0.dtd"
   xmlns:inkscape="http://www.inkscape.org/namespaces/inkscape"
   viewBox="0 0 160 160"
   width="160"
   height="160"
   version="1.1"
   id="svg4518"
   sodipodi:docname="salut.svg"
   inkscape:version="0.92.1 r15371">
  <metadata
     id="metadata16">
    <rdf:RDF>
      <cc:Work
         rdf:about="">
        <dc:format>image/svg+xml</dc:format>
        <dc:type
           rdf:resource="http://purl.org/dc/dcmitype/StillImage" />
      </cc:Work>
    </rdf:RDF>
  </metadata>
  <defs
     id="defs14">
    <clipPath
       clipPathUnits="userSpaceOnUse"
       id="clipPath3612">
      <path
         d="m 0,0 602.362,0 0,841.89 L 0,841.89 0,0 Z"
         id="path3614" />
    </clipPath>
    <clipPath
       clipPathUnits="userSpaceOnUse"
       id="clipPath3516">
      <path
         d="m 0,0 602.362,0 0,841.89 L 0,841.89 0,0 Z"
         id="path3518" />
    </clipPath>
  </defs>
  <sodipodi:namedview
     pagecolor="#ffffff"
     bordercolor="#666666"
     borderopacity="1"
     objecttolerance="10"
     gridtolerance="10"
     guidetolerance="10"
     inkscape:pageopacity="0"
     inkscape:pageshadow="2"
     inkscape:window-width="1920"
     inkscape:window-height="1018"
     id="namedview12"
     showgrid="false"
     inkscape:zoom="2.95"
     inkscape:cx="25.663841"
     inkscape:cy="137.36328"
     inkscape:window-x="-8"
     inkscape:window-y="-8"
     inkscape:window-maximized="1"
     inkscape:current-layer="svg4518" />
  <circle
     cx="80"
     cy="80"
     r="50"
     id="circle4"
     style="fill:none" />
  <g
     transform=" matrix(0.866, -0.5, 0.25, 0.433, 80, 80)"
     id="g6"
     style="fill:#e75c30;fill-opacity:1">
    <path
       d="M 0,70 A 65,70 0 0,0 65,0 5,5 0 0,1 75,0 75,70 0 0,1 0,70Z"
       fill="#FFF"
       id="path8"
       style="fill:#e75c30;fill-opacity:1">
      <animateTransform
         attributeName="transform"
         type="rotate"
         from="360 0 0"
         to="0 0 0"
         dur="1s"
         repeatCount="indefinite" />
      <!-- <set attributeName="opacity" attributeType="CSS" to="0" begin="2.5s" dur="3s"/> -->
      <animate
         attributeType="CSS"
         attributeName="opacity"
         from="1"
         to="0"
         begin="3s; opacity1.end+10s"
         dur="3s"
         repeatCount="1"
         fill="freeze"
         id="opacity0" />
      <animate
         attributeType="CSS"
         attributeName="opacity"
         from="0"
         to="1"
         begin="opacity0.end+10s"
         dur="3s"
         repeatCount="1"
         fill="freeze"
         id="opacity1" />
    </path>
  </g>
  <path
     d="M 50,0 A 50,50 0 0,0 -50,0Z"
     transform="matrix(0.866, -0.5, 0.5, 0.866, 80, 80)"
     id="path10"
     style="fill:none" />
  <g
     id="layer1"
     transform="matrix(0.24824805,0,0,0.29396458,-50.184665,-127.8482)">
    <g
       transform="matrix(3.1341529,0,0,-3.1341529,229.85552,3103.7082)"
       id="g3512">
      <g
         id="g3514"
         clip-path="url(#clipPath3516)">
        <g
           id="g3520"
           transform="translate(137.5713,765.9202)">
          <path
             d="m 0,0 c 1.54,4.852 -0.535,9.568 -4.383,13.736 -0.35,0.385 -0.742,0.811 -1.166,1.269 -0.097,-0.359 -0.203,-0.722 -0.327,-1.091 -0.524,-1.707 -0.9,-3.319 -0.87,-4.72 0.086,-4.223 2.122,-7.858 4.29,-11.556 0.245,-0.416 0.477,-0.836 0.703,-1.258 0.077,0.155 0.154,0.309 0.233,0.461 C -1.07,-2.231 -0.292,-0.914 0,0"
             style="fill:#ffffff;fill-opacity:1;fill-rule:nonzero;stroke:none"
             id="path3522"
             inkscape:connector-curvature="0" />
        </g>
        <g
           id="g3524"
           transform="translate(137.5713,765.9202)">
          <path
             d="m 0,0 c 1.54,4.852 -0.535,9.568 -4.383,13.736 -0.35,0.385 -0.742,0.811 -1.166,1.269 -0.097,-0.359 -0.203,-0.722 -0.327,-1.091 -0.524,-1.707 -0.9,-3.319 -0.87,-4.72 0.086,-4.223 2.122,-7.858 4.29,-11.556 0.245,-0.416 0.477,-0.836 0.703,-1.258 0.077,0.155 0.154,0.309 0.233,0.461 C -1.07,-2.231 -0.292,-0.914 0,0 Z"
             style="fill:none;stroke:#ffffff;stroke-width:4.72800016;stroke-linecap:butt;stroke-linejoin:miter;stroke-miterlimit:4;stroke-dasharray:none;stroke-opacity:1"
             id="path3526"
             inkscape:connector-curvature="0" />
        </g>
        <g
           id="g3528"
           transform="translate(89.6073,747.6923)">
          <path
             d="m 0,0 c -5.79,0.942 -14.559,1.716 -21.693,3.307 -1.5,0.338 -2.909,0.724 -4.187,1.171 1.321,-1.261 2.872,-2.69 3.762,-3.348 4.716,-3.475 10.394,-6.474 17.903,-7.475 9.005,-1.206 20.103,-1.187 28.234,1.567 0.552,0.188 1.094,0.386 1.62,0.6 C 24.792,-4.126 23.94,-4.063 23.08,-3.98 14.481,-3.154 5.511,-0.897 0,0"
             style="fill:#ffffff;fill-opacity:1;fill-rule:nonzero;stroke:none"
             id="path3530"
             inkscape:connector-curvature="0" />
        </g>
        <g
           id="g3532"
           transform="translate(89.6073,747.6923)">
          <path
             d="m 0,0 c -5.79,0.942 -14.559,1.716 -21.693,3.307 -1.5,0.338 -2.909,0.724 -4.187,1.171 1.321,-1.261 2.872,-2.69 3.762,-3.348 4.716,-3.475 10.394,-6.474 17.903,-7.475 9.005,-1.206 20.103,-1.187 28.234,1.567 0.552,0.188 1.094,0.386 1.62,0.6 C 24.792,-4.126 23.94,-4.063 23.08,-3.98 14.481,-3.154 5.511,-0.897 0,0 Z"
             style="fill:none;stroke:#ffffff;stroke-width:4.72800016;stroke-linecap:butt;stroke-linejoin:miter;stroke-miterlimit:4;stroke-dasharray:none;stroke-opacity:1"
             id="path3534"
             inkscape:connector-curvature="0" />
        </g>
        <g
           id="g3536"
           transform="translate(125.3316,787.787)">
          <path
             d="M 0,0 C 2.475,-2.31 4.883,-4.895 6.69,-6.862 7.898,-2.391 7.303,1.366 4.815,4.684 1.513,9.076 -5.485,10.075 -11.668,8.958 -11.731,8.942 -11.836,8.924 -11.975,8.893 -11.55,8.659 -11.134,8.414 -10.729,8.161 -7.266,6.102 -3.261,3.037 0,0"
             style="fill:#ffffff;fill-opacity:1;fill-rule:nonzero;stroke:none"
             id="path3538"
             inkscape:connector-curvature="0" />
        </g>
        <g
           id="g3540"
           transform="translate(125.3316,787.787)">
          <path
             d="M 0,0 C 2.475,-2.31 4.883,-4.895 6.69,-6.862 7.898,-2.391 7.303,1.366 4.815,4.684 1.513,9.076 -5.485,10.075 -11.668,8.958 -11.731,8.942 -11.836,8.924 -11.975,8.893 -11.55,8.659 -11.134,8.414 -10.729,8.161 -7.266,6.102 -3.261,3.037 0,0 Z"
             style="fill:none;stroke:#ffffff;stroke-width:4.72800016;stroke-linecap:butt;stroke-linejoin:miter;stroke-miterlimit:4;stroke-dasharray:none;stroke-opacity:1"
             id="path3542"
             inkscape:connector-curvature="0" />
        </g>
        <g
           id="g3544"
           transform="translate(117.0676,744.3702)">
          <path
             d="m 0,0 c -0.574,-0.327 -1.185,-0.602 -1.822,-0.856 1.108,-0.07 2.202,-0.112 3.275,-0.117 9.568,-0.054 17.716,2.543 18.96,11.881 0.189,1.442 0,2.816 -0.423,4.151 -0.307,0.975 -0.742,1.927 -1.24,2.871 C 18.155,16.773 17.443,15.608 16.641,14.46 12.551,8.644 6.227,3.533 0,0"
             style="fill:#ffffff;fill-opacity:1;fill-rule:nonzero;stroke:none"
             id="path3546"
             inkscape:connector-curvature="0" />
        </g>
        <g
           id="g3548"
           transform="translate(117.0676,744.3702)">
          <path
             d="m 0,0 c -0.574,-0.327 -1.185,-0.602 -1.822,-0.856 1.108,-0.07 2.202,-0.112 3.275,-0.117 9.568,-0.054 17.716,2.543 18.96,11.881 0.189,1.442 0,2.816 -0.423,4.151 -0.307,0.975 -0.742,1.927 -1.24,2.871 C 18.155,16.773 17.443,15.608 16.641,14.46 12.551,8.644 6.227,3.533 0,0 Z"
             style="fill:none;stroke:#ffffff;stroke-width:4.72800016;stroke-linecap:butt;stroke-linejoin:miter;stroke-miterlimit:4;stroke-dasharray:none;stroke-opacity:1"
             id="path3550"
             inkscape:connector-curvature="0" />
        </g>
        <g
           id="g3552"
           transform="translate(61.7658,754.0995)">
          <path
             d="m 0,0 c -6.804,6.963 -8.408,15.294 -5.834,22.852 0.33,0.958 0.723,1.862 1.183,2.726 C -5.614,25.004 -6.544,24.389 -7.43,23.727 -16.268,17.133 -16.614,9.495 -6.279,2.147 -4.26,0.705 -0.952,-0.92 1.749,-1.855 1.817,-1.877 1.892,-1.904 1.961,-1.929 1.149,-1.15 0.425,-0.434 0,0"
             style="fill:#ffffff;fill-opacity:1;fill-rule:nonzero;stroke:none"
             id="path3554"
             inkscape:connector-curvature="0" />
        </g>
        <g
           id="g3556"
           transform="translate(61.7658,754.0995)">
          <path
             d="m 0,0 c -6.804,6.963 -8.408,15.294 -5.834,22.852 0.33,0.958 0.723,1.862 1.183,2.726 C -5.614,25.004 -6.544,24.389 -7.43,23.727 -16.268,17.133 -16.614,9.495 -6.279,2.147 -4.26,0.705 -0.952,-0.92 1.749,-1.855 1.817,-1.877 1.892,-1.904 1.961,-1.929 1.149,-1.15 0.425,-0.434 0,0 Z"
             style="fill:none;stroke:#ffffff;stroke-width:4.72800016;stroke-linecap:butt;stroke-linejoin:miter;stroke-miterlimit:4;stroke-dasharray:none;stroke-opacity:1"
             id="path3558"
             inkscape:connector-curvature="0" />
        </g>
        <g
           id="g3560"
           transform="translate(88.3635,790.1873)">
          <path
             d="m 0,0 c 10.938,3.193 21.793,5.785 22.286,5.896 0.356,0.084 1.963,0.443 2.707,0.597 -3.178,1.782 -6.907,3.093 -11.492,3.729 -11.073,1.521 -19.338,-2.418 -28.158,-7.089 -7.27,-3.856 -13.431,-7.682 -16.592,-13.643 2.406,1.445 5.012,2.634 7.644,3.648 C -19.687,-5.354 -5.351,-1.564 0,0"
             style="fill:#ffffff;fill-opacity:1;fill-rule:nonzero;stroke:none"
             id="path3562"
             inkscape:connector-curvature="0" />
        </g>
        <g
           id="g3564"
           transform="translate(88.3635,790.1873)">
          <path
             d="m 0,0 c 10.938,3.193 21.793,5.785 22.286,5.896 0.356,0.084 1.963,0.443 2.707,0.597 -3.178,1.782 -6.907,3.093 -11.492,3.729 -11.073,1.521 -19.338,-2.418 -28.158,-7.089 -7.27,-3.856 -13.431,-7.682 -16.592,-13.643 2.406,1.445 5.012,2.634 7.644,3.648 C -19.687,-5.354 -5.351,-1.564 0,0 Z"
             style="fill:none;stroke:#ffffff;stroke-width:4.72800016;stroke-linecap:butt;stroke-linejoin:miter;stroke-miterlimit:4;stroke-dasharray:none;stroke-opacity:1"
             id="path3566"
             inkscape:connector-curvature="0" />
        </g>
        <g
           id="g3568"
           transform="translate(137.5713,765.9202)">
          <path
             d="m 0,0 c 1.54,4.852 -0.535,9.568 -4.383,13.736 -0.35,0.385 -0.742,0.811 -1.166,1.269 -0.097,-0.359 -0.203,-0.722 -0.327,-1.091 -0.524,-1.707 -0.9,-3.319 -0.87,-4.72 0.086,-4.223 2.122,-7.858 4.29,-11.556 0.245,-0.416 0.477,-0.836 0.703,-1.258 0.077,0.155 0.154,0.309 0.233,0.461 C -1.07,-2.231 -0.292,-0.914 0,0"
             style="fill:#fdb812;fill-opacity:1;fill-rule:nonzero;stroke:none"
             id="path3570"
             inkscape:connector-curvature="0" />
        </g>
        <g
           id="g3572"
           transform="translate(89.6073,747.6923)">
          <path
             d="m 0,0 c -5.79,0.942 -14.559,1.716 -21.693,3.307 -1.5,0.338 -2.909,0.724 -4.187,1.171 1.321,-1.261 2.872,-2.69 3.762,-3.348 4.716,-3.475 10.394,-6.474 17.903,-7.475 9.005,-1.206 20.103,-1.187 28.234,1.567 0.552,0.188 1.094,0.386 1.62,0.6 C 24.792,-4.126 23.94,-4.063 23.08,-3.98 14.481,-3.154 5.511,-0.897 0,0"
             style="fill:#fdb812;fill-opacity:1;fill-rule:nonzero;stroke:none"
             id="path3574"
             inkscape:connector-curvature="0" />
        </g>
        <g
           id="g3576"
           transform="translate(125.3316,787.787)">
          <path
             d="M 0,0 C 2.475,-2.31 4.883,-4.895 6.69,-6.862 7.898,-2.391 7.303,1.366 4.815,4.684 1.513,9.076 -5.485,10.075 -11.668,8.958 -11.731,8.942 -11.836,8.924 -11.975,8.893 -11.55,8.659 -11.134,8.414 -10.729,8.161 -7.266,6.102 -3.261,3.037 0,0"
             style="fill:#ed1b23;fill-opacity:1;fill-rule:nonzero;stroke:none"
             id="path3578"
             inkscape:connector-curvature="0" />
        </g>
        <g
           id="g3580"
           transform="translate(117.0676,744.3702)">
          <path
             d="m 0,0 c -0.574,-0.327 -1.185,-0.602 -1.822,-0.856 1.108,-0.07 2.202,-0.112 3.275,-0.117 9.568,-0.054 17.716,2.543 18.96,11.881 0.189,1.442 0,2.816 -0.423,4.151 -0.307,0.975 -0.742,1.927 -1.24,2.871 C 18.155,16.773 17.443,15.608 16.641,14.46 12.551,8.644 6.227,3.533 0,0"
             style="fill:#ed1b23;fill-opacity:1;fill-rule:nonzero;stroke:none"
             id="path3582"
             inkscape:connector-curvature="0" />
        </g>
        <g
           id="g3584"
           transform="translate(61.7658,754.0995)">
          <path
             d="m 0,0 c -6.804,6.963 -8.408,15.294 -5.834,22.852 0.33,0.958 0.723,1.862 1.183,2.726 C -5.614,25.004 -6.544,24.389 -7.43,23.727 -16.268,17.133 -16.614,9.495 -6.279,2.147 -4.26,0.705 -0.952,-0.92 1.749,-1.855 1.817,-1.877 1.892,-1.904 1.961,-1.929 1.149,-1.15 0.425,-0.434 0,0"
             style="fill:#ed1b23;fill-opacity:1;fill-rule:nonzero;stroke:none"
             id="path3586"
             inkscape:connector-curvature="0" />
        </g>
        <g
           id="g3588"
           transform="translate(88.3635,790.1873)">
          <path
             d="m 0,0 c 10.938,3.193 21.793,5.785 22.286,5.896 0.356,0.084 1.963,0.443 2.707,0.597 -3.178,1.782 -6.907,3.093 -11.492,3.729 -11.073,1.521 -19.338,-2.418 -28.158,-7.089 -7.27,-3.856 -13.431,-7.682 -16.592,-13.643 2.406,1.445 5.012,2.634 7.644,3.648 C -19.687,-5.354 -5.351,-1.564 0,0"
             style="fill:#fdb812;fill-opacity:1;fill-rule:nonzero;stroke:none"
             id="path3590"
             inkscape:connector-curvature="0" />
        </g>
        <g
           id="g3592"
           transform="translate(135.1155,763.5579)">
          <path
             d="m 0,0 c -2.168,3.698 -4.204,7.333 -4.29,11.557 -0.03,1.401 0.346,3.013 0.87,4.719 0.123,0.369 0.23,0.732 0.326,1.091 -1.806,1.967 -4.215,4.552 -6.69,6.862 -3.261,3.037 -7.266,6.102 -10.729,8.161 -0.405,0.253 -0.821,0.498 -1.246,0.733 -0.744,-0.155 -2.351,-0.514 -2.707,-0.598 -0.493,-0.111 -11.348,-2.703 -22.286,-5.896 -5.351,-1.564 -19.687,-5.353 -23.605,-6.862 -2.632,-1.014 -5.238,-2.202 -7.644,-3.648 -0.46,-0.863 -0.853,-1.767 -1.183,-2.725 -2.574,-7.558 -0.97,-15.889 5.834,-22.852 0.426,-0.434 1.15,-1.15 1.962,-1.93 1.278,-0.446 2.686,-0.832 4.187,-1.17 7.134,-1.592 15.903,-2.365 21.693,-3.308 5.511,-0.897 14.48,-3.154 23.079,-3.98 0.861,-0.082 1.713,-0.146 2.559,-0.198 0.637,0.254 1.248,0.529 1.822,0.856 6.227,3.533 12.551,8.644 16.641,14.46 0.802,1.149 1.514,2.314 2.11,3.471 C 0.477,-0.836 0.245,-0.416 0,0"
             style="fill:#f36f20;fill-opacity:1;fill-rule:nonzero;stroke:none"
             id="path3594"
             inkscape:connector-curvature="0" />
        </g>
        <g
           id="g3596"
           transform="translate(67.8135,773.9242)">
          <path
             d="m 0,0 h 0.95 c 1.065,0 2.276,-0.114 2.276,-1.39 0,-1.197 -1.177,-1.363 -2.309,-1.363 H 0 Z m -3.088,-4.97 h 4.89 c 2.076,0 4.516,0.591 4.516,3.393 0,1.428 -0.796,2.27 -2.341,2.585 V 1.044 C 5.271,1.482 6.02,2.302 6.02,3.783 6.02,5.8 4.407,6.755 2.25,6.755 H -3.088 Z M 0,4.54 h 0.898 c 1.036,0 2.03,-0.102 2.03,-1.181 0,-0.986 -1.048,-1.24 -2.06,-1.24 L 0,2.119 Z"
             style="fill:#ffffff;fill-opacity:1;fill-rule:nonzero;stroke:none"
             id="path3598"
             inkscape:connector-curvature="0" />
        </g>
      </g>
    </g>
    <g
       id="g3600"
       transform="matrix(3.1341529,0,0,-3.1341529,485.67009,678.90127)">
      <path
         d="m 0,0 h -2.91 l 1.5,4.586 h 0.031 z m -7.681,-4.718 h 3.144 l 0.917,2.503 H 0.73 L 1.596,-4.718 H 4.987 L 0.516,7.007 h -3.792 z"
         style="fill:#ffffff;fill-opacity:1;fill-rule:nonzero;stroke:none"
         id="path3602"
         inkscape:connector-curvature="0" />
    </g>
    <g
       id="g3604"
       transform="matrix(3.1341529,0,0,-3.1341529,503.21133,656.93964)">
      <path
         d="M 0,0 H 3.944 L 7.87,-7.963 H 7.9 L 7.854,0 H 10.68 V -11.725 H 6.839 L 2.775,-3.711 H 2.746 L 2.84,-11.725 H 0 Z"
         style="fill:#ffffff;fill-opacity:1;fill-rule:nonzero;stroke:none"
         id="path3606"
         inkscape:connector-curvature="0" />
    </g>
    <g
       transform="matrix(3.1341529,0,0,-3.1341529,229.85552,3103.7082)"
       id="g3608">
      <g
         id="g3610"
         clip-path="url(#clipPath3612)">
        <g
           id="g3616"
           transform="translate(102.7516,778.3622)">
          <path
             d="m 0,0 h 1.199 c 2.259,0 3.605,-1.209 3.605,-3.545 0,-2.337 -1.296,-3.55 -3.605,-3.55 H 0 Z m -3.094,-9.408 h 4.226 c 3.956,0 6.864,1.53 6.864,5.911 0,4.54 -2.824,5.814 -6.864,5.814 h -4.226 z"
             style="fill:#ffffff;fill-opacity:1;fill-rule:nonzero;stroke:none"
             id="path3618"
             inkscape:connector-curvature="0" />
        </g>
      </g>
    </g>
    <g
       id="g3620"
       transform="matrix(3.1341529,0,0,-3.1341529,598.86098,678.90127)">
      <path
         d="m 0,0 h -2.915 l 1.499,4.586 h 0.032 z m -7.687,-4.718 h 3.143 l 0.914,2.503 H 0.728 L 1.59,-4.718 H 4.984 L 0.513,7.007 h -3.794 z"
         style="fill:#ffffff;fill-opacity:1;fill-rule:nonzero;stroke:none"
         id="path3622"
         inkscape:connector-curvature="0" />
    </g>
    <path
       d="m 615.97062,656.94089 h 9.69709 v 36.74794 h -9.69709 z"
       style="fill:#ffffff;fill-opacity:1;fill-rule:nonzero;stroke:none"
       id="path3624"
       inkscape:connector-curvature="0" />
    <g
       id="g3626"
       transform="matrix(3.1341529,0,0,-3.1341529,432.71452,701.68561)">
      <path
         d="m 0,0 h 3.978 l 3.963,-7.965 h 0.04 L 7.927,0 h 2.855 V -11.725 H 6.9 L 2.804,-3.714 H 2.772 l 0.101,-8.011 H 0 Z"
         style="fill:#ffffff;fill-opacity:1;fill-rule:nonzero;stroke:none"
         id="path3628"
         inkscape:connector-curvature="0" />
    </g>
    <g
       id="g3630"
       transform="matrix(3.1341529,0,0,-3.1341529,492.80781,723.64381)">
      <path
         d="m 0,0 h -2.94 l 1.509,4.588 h 0.032 z m -7.764,-4.719 h 3.179 l 0.919,2.5 h 4.401 l 0.872,-2.5 H 5.04 L 0.518,7.006 h -3.829 z"
         style="fill:#ffffff;fill-opacity:1;fill-rule:nonzero;stroke:none"
         id="path3632"
         inkscape:connector-curvature="0" />
    </g>
    <g
       id="g3634"
       transform="matrix(3.1341529,0,0,-3.1341529,510.55747,701.68561)">
      <path
         d="M 0,0 H 4.926 L 6.959,-7.795 H 6.991 L 9.142,0 h 4.735 V -11.725 H 10.82 l 0.05,9.001 H 10.835 L 8.304,-11.725 H 5.429 L 3.025,-2.724 H 2.993 l 0.063,-9.001 H 0 Z"
         style="fill:#ffffff;fill-opacity:1;fill-rule:nonzero;stroke:none"
         id="path3636"
         inkscape:connector-curvature="0" />
    </g>
    <g
       id="g3646"
       transform="matrix(3.1341529,0,0,-3.1341529,589.35321,737.60083)">
      <path
         d="m 0,0 c -0.894,-0.214 -1.884,-0.471 -3.482,-0.471 -3.127,0 -6.738,1.58 -6.738,6.017 0,4.078 2.855,6.118 6.719,6.118 1.195,0 2.352,-0.272 3.477,-0.608 L -0.275,8.521 c -1.006,0.549 -1.982,0.823 -3.053,0.823 -2.219,0 -3.665,-1.615 -3.665,-3.798 0,-2.305 1.626,-3.701 3.913,-3.701 1.024,0 2.066,0.273 2.923,0.607 z"
         style="fill:#ffffff;fill-opacity:1;fill-rule:nonzero;stroke:none"
         id="path3648"
         inkscape:connector-curvature="0" />
    </g>
    <g
       id="g3650"
       transform="matrix(3.1341529,0,0,-3.1341529,600.96808,720.06681)">
      <path
         d="M 0,0 C 0,2.036 0.752,3.75 2.656,3.75 4.553,3.75 5.309,2.036 5.309,0 5.309,-1.93 4.553,-3.75 2.656,-3.75 0.752,-3.75 0,-1.93 0,0 m -3.23,0 c 0,-3.729 2.047,-6.065 5.886,-6.065 3.824,0 5.876,2.336 5.876,6.065 0,3.761 -2.015,6.07 -5.876,6.07 C -1.214,6.07 -3.23,3.761 -3.23,0"
         style="fill:#ffffff;fill-opacity:1;fill-rule:nonzero;stroke:none"
         id="path3652"
         inkscape:connector-curvature="0" />
    </g>
  </g>
</svg>
